<svg xmlns="http://www.w3.org/2000/svg" width="68" height="79" fill="none"><path d="m45.6 32.66-5.27 3.04-6.58-3.8v-6.08l11.85 6.84ZM33.75 25.82v6.08l-6.58 3.8-5.26-3.04 11.84-6.84Z" fill="#007DF2"/><path d="m45.6 32.66-5.27 3.04-6.58-3.8v-6.08l11.85 6.84Z" fill="url(#a)"/><path d="M33.75 25.82v6.08l-6.58 3.8-5.26-3.04 11.84-6.84Z" fill="url(#b)"/><path d="m45.6 32.66-5.27 3.04-6.58-3.8v-6.08l11.85 6.84Z" fill="url(#c)"/><path d="M33.75 53.18V47.1l-6.58-3.8-5.26 3.04 11.84 6.84ZM33.75 53.18l11.85-6.84-5.27-3.04-6.58 3.8v6.08Z" fill="#007DF2"/><path d="m33.75 53.18 11.85-6.84-5.27-3.04-6.58 3.8v6.08Z" fill="url(#d)"/><path d="M33.75 53.18V47.1l-6.58-3.8-5.26 3.04 11.84 6.84Z" fill="url(#e)"/><path d="m21.9 46.32 5.87-3.38-5.86-.52v3.9ZM21.9 33v6.36l5.37-3.24-5.36-3.11ZM45.6 39.74v6.36l-5.36-3.25 5.36-3.11ZM21.9 39.36l18.34 3.49 5.36-3.11-18.33-3.62-5.36 3.24ZM67.5 20.01 39.43 35.98H67.5V20.01Z" fill="#007DF2"/><path d="M33.75.53v17.32L52.5 28.67l15-8.66L33.75.53ZM33.75.53 0 20l15 8.66 18.75-10.82V.53ZM0 20.01v38.98l15-8.67V28.67L0 20.01ZM15 50.32l18.75 10.83v17.32L0 59l15-8.67ZM52.5 50.32l15 8.67-33.75 19.48V61.15L52.5 50.32Z" fill="#007DF2"/><path d="M33.75.53v17.32L52.5 28.67l15-8.66L33.75.53Z" fill="url(#f)"/><path d="M15 50.32 0 59l33.75 19.48V61.15L15.01 50.32Z" fill="url(#g)"/><defs><linearGradient id="a" x1="36.63" y1="27.87" x2="43.36" y2="37.61" gradientUnits="userSpaceOnUse"><stop stop-opacity="0"/><stop offset=".81" stop-opacity=".4"/></linearGradient><linearGradient id="b" x1="29.14" y1="31.51" x2="18.83" y2="37.34" gradientUnits="userSpaceOnUse"><stop stop-opacity="0"/><stop offset="1" stop-opacity=".4"/></linearGradient><linearGradient id="c" x1="35.56" y1="29.23" x2="54.89" y2="43.55" gradientUnits="userSpaceOnUse"><stop offset=".17" stop-opacity="0"/><stop offset=".81" stop-opacity=".4"/></linearGradient><linearGradient id="d" x1="33.75" y1="48.24" x2="45.6" y2="48.24" gradientUnits="userSpaceOnUse"><stop stop-opacity="0"/><stop offset=".81" stop-opacity=".4"/></linearGradient><linearGradient id="e" x1="30.88" y1="51.13" x2="24.14" y2="41.38" gradientUnits="userSpaceOnUse"><stop stop-opacity="0"/><stop offset=".81" stop-opacity=".4"/></linearGradient><linearGradient id="f" x1="41.94" y1="6.36" x2="61.13" y2="34.13" gradientUnits="userSpaceOnUse"><stop stop-opacity="0"/><stop offset=".81" stop-opacity=".4"/></linearGradient><linearGradient id="g" x1="0" y1="64.4" x2="33.75" y2="64.4" gradientUnits="userSpaceOnUse"><stop stop-opacity="0"/><stop offset=".81" stop-opacity=".4"/></linearGradient></defs></svg>