<svg width="271" height="47" fill="none" xmlns="http://www.w3.org/2000/svg"><path d="M85.33 22.3a2.73 2.73 0 0 0-1.19-2.05 4.54 4.54 0 0 0-2.68-.73c-.77 0-1.44.12-2 .35-.55.24-.97.56-1.26.96a2.31 2.31 0 0 0-.16 2.48c.2.31.47.58.8.8.35.21.73.4 1.14.54.41.15.83.27 1.25.37l1.92.48c.78.18 1.52.43 2.24.73.72.3 1.36.7 1.93 1.16a5.15 5.15 0 0 1 1.36 1.7c.33.66.5 1.43.5 2.32 0 1.2-.3 2.26-.92 3.17-.62.91-1.5 1.62-2.66 2.13-1.16.51-2.56.77-4.2.77-1.6 0-2.98-.25-4.15-.75a6.19 6.19 0 0 1-2.75-2.16 6.4 6.4 0 0 1-1.06-3.46h3.66c.05.71.27 1.3.66 1.78.38.47.89.83 1.5 1.06.64.23 1.34.35 2.11.35.8 0 1.52-.12 2.12-.36.62-.25 1.1-.59 1.44-1.02.35-.44.53-.95.54-1.54-.01-.54-.17-.98-.48-1.32-.3-.36-.73-.65-1.29-.88-.54-.24-1.18-.46-1.92-.65l-2.33-.6a9.4 9.4 0 0 1-4-1.97 4.55 4.55 0 0 1-1.47-3.53c0-1.21.33-2.27.98-3.18a6.48 6.48 0 0 1 2.7-2.1 9.35 9.35 0 0 1 3.85-.77c1.46 0 2.73.25 3.83.76 1.1.5 1.96 1.2 2.59 2.1.63.88.95 1.9.97 3.06h-3.57Zm19.24-5.64h3.72v13.4a7.04 7.04 0 0 1-3.94 6.49c-1.26.62-2.72.93-4.38.93a9.74 9.74 0 0 1-4.39-.94 7.04 7.04 0 0 1-2.9-2.6 7.23 7.23 0 0 1-1.03-3.88v-13.4h3.71v13.09c0 .85.19 1.61.56 2.28.38.67.91 1.19 1.6 1.57.69.37 1.5.56 2.45.56.94 0 1.75-.19 2.44-.56a4 4 0 0 0 1.6-1.57c.37-.67.56-1.43.56-2.28V16.66Zm6.9 20.5v-20.5h3.72v17.4h9.03v3.1h-12.74Zm11.61-17.39v-3.1h16.36v3.1h-6.34v17.4h-3.68v-17.4h-6.34Zm18.83 17.4h-3.97l7.22-20.5h4.59l7.22 20.5h-3.96l-5.48-16.3h-.16l-5.46 16.3Zm.13-8.04h10.8v2.98h-10.8v-2.98Zm33.64-12.47v20.5h-3.3L162.7 23.2h-.17v13.96h-3.71v-20.5h3.32l9.65 13.98h.18V16.66h3.7Z" fill="#264A60"/><path d="M177.98 19.77v-3.1h16.36v3.1H188v17.4h-3.68v-17.4h-6.34Zm18.67 17.4v-20.5h7.69c1.57 0 2.9.26 3.96.81a5.61 5.61 0 0 1 2.43 2.3c.56.99.83 2.13.83 3.44s-.28 2.45-.84 3.42a5.55 5.55 0 0 1-2.45 2.24 9.14 9.14 0 0 1-3.99.78h-5.47v-3.09h4.97c.93 0 1.68-.12 2.27-.38a2.7 2.7 0 0 0 1.3-1.13c.29-.5.43-1.11.43-1.84s-.14-1.35-.43-1.86a2.74 2.74 0 0 0-1.31-1.19 5.4 5.4 0 0 0-2.28-.4h-3.4v17.4h-3.71Zm10.59-9.3 5.07 9.3h-4.14l-4.99-9.3h4.06Zm9.53 9.3h-3.97l7.22-20.5h4.59l7.23 20.5h-3.97l-5.47-16.3h-.16l-5.47 16.3Zm.13-8.04h10.81v2.98H216.9v-2.98Zm33.64-12.47v20.5h-3.3l-9.66-13.96h-.17v13.96h-3.72v-20.5h3.33l9.65 13.98h.18V16.66h3.7Zm14.35 5.64a2.74 2.74 0 0 0-1.18-2.05 4.54 4.54 0 0 0-2.69-.73c-.77 0-1.44.12-1.99.35-.55.24-.98.56-1.27.96a2.3 2.3 0 0 0-.16 2.48c.2.31.47.58.81.8.34.21.72.4 1.13.54.41.15.83.27 1.25.37l1.92.48c.78.18 1.52.43 2.24.73.72.3 1.36.7 1.93 1.16a5.16 5.16 0 0 1 1.36 1.7c.33.66.5 1.43.5 2.32 0 1.2-.3 2.26-.92 3.17-.61.91-1.5 1.62-2.66 2.13-1.16.51-2.56.77-4.2.77-1.6 0-2.98-.25-4.15-.75a6.19 6.19 0 0 1-2.75-2.16c-.65-.95-1-2.1-1.06-3.46h3.66c.05.71.27 1.3.66 1.78.39.47.89.83 1.51 1.06a6 6 0 0 0 2.1.35c.81 0 1.52-.12 2.13-.36.6-.25 1.09-.59 1.44-1.02.34-.44.52-.95.53-1.54 0-.54-.17-.98-.47-1.32-.31-.36-.74-.65-1.3-.88-.54-.24-1.18-.46-1.92-.65l-2.33-.6a9.39 9.39 0 0 1-4-1.97 4.55 4.55 0 0 1-1.47-3.53c0-1.21.33-2.27.99-3.18a6.49 6.49 0 0 1 2.69-2.1 9.35 9.35 0 0 1 3.85-.77c1.46 0 2.73.25 3.83.76 1.1.5 1.96 1.2 2.6 2.1.62.88.94 1.9.96 3.06h-3.57ZM.5 15.25c19.27-1.53 49.93 14.18 62.85 22.22C38.92 26.8 14.4 27.1 5.2 28.58 7.55 25.02 3.05 18.21.5 15.25Z" fill="#368ABE"/><path d="M5.79 0c29.6 4.07 53.84 26.67 62.26 37.47-19.74-14.73-45.42-23.07-55.8-25.4 1.4-2.03-3.72-8.89-6.46-12.06Z" fill="#368ABE"/><path d="M6.38 34.93c16.91-6.6 41.5-1.06 51.68 2.54-19.26-2.54-37.4 3.17-44.05 6.35-.94-3.05-5.48-7.2-7.63-8.89Z" fill="#264A60"/></svg>