<svg width="226" height="75" fill="none" xmlns="http://www.w3.org/2000/svg"><g clip-path="url(#a)" filter="url(#b)"><path d="M81 22.69c-.08 1.08-.74 1.83-1.69 2.38-.7.42-1.38.88-2.1 1.27a4.18 4.18 0 0 0-1.97 2.24 66.7 66.7 0 0 1-1.42 3.19c-.22.45-.16.79.23 1.12.46.37.89.79 1.35 1.16.44.34.53.7.22 1.16-1.2 1.83-2.35 3.68-3.58 5.49-.43.6-.92 1.17-1.46 1.7-.7.74-1.49 1.18-2.62.9-.9-.2-1.73.13-2.46.67a14.42 14.42 0 0 0-4.1 4.5c-.37.7-.5 1.48-.39 2.25a2.65 2.65 0 0 1-1.07 2.86c-1.58 1.23-3.18 2.43-4.75 3.67-.57.42-1.1.88-1.59 1.38-.52.54-.9.47-1.3-.09l-.3-.37c-1.53-1.83-.94-1.73-3.3-.77-1.86.75-3.38 1.87-4.23 3.68-.23.45-.48.9-.76 1.31-.52.82-1.2 1.41-2.24 1.6-.8.16-1.59.41-2.4.57-1.28.25-1.84-.3-1.6-1.5.13-.54.23-1.09.3-1.63 0-.22-.15-.57-.34-.66-.6-.3-1.25-.6-1.92-.69-.4-.05-.97.16-1.3.44-.68.62-1.3 1.28-1.88 1.99-.4.45-.81.48-1.17.07-.56-.64-1.14-1.3-1.51-2.04-.19-.37-.05-.97.13-1.39.27-.55.6-1.06 1-1.53.94-1.18.35-2.3-.14-3.41-.05-.12-.53-.19-.74-.11-1.12.39-1.2.34-1.48-.78-.4-1.7.15-3.09 1.45-4.27A6.56 6.56 0 0 0 32 45.4c.1-.56.08-1.03-.33-1.46-.49-.5-.48-1.01-.06-1.56.17-.24.3-.5.38-.78a8.29 8.29 0 0 1 2.03-3.11c1-1.02 1.92-2.1 2.77-3.22.43-.61.73-1.3.9-2 .27-1.05.58-1.29 1.65-.98.23.04.45.06.68.07-.84-1.22-1.6-2.3-2.7-3.01-.48-.32-1.27-.18-1.93-.26-3.67-.47-7.34-.96-11.01-1.46-.27-.04-.5-.31-.74-.48.26-.12.51-.35.78-.35 4.57-.09 9.14-.12 13.72-.23 1.24-.03 2.2.26 3.07 1.15 2.27 2.3 4.62 4.52 6.95 6.75.5.47.51.82 0 1.3l-8.32 8.02c-.1.12-.23.23-.38.3-.3.09-.6.15-.91.2-.03-.29-.17-.6-.08-.87.33-1.16.59-2.37 1.13-3.45.52-1.01 1.33-1.9 2.06-2.82.33-.39.7-.74 1.1-1.05.5-.41.48-.76 0-1.16-.54-.47-1.04-.97-1.66-1.56-1.07 1.94-2.17 3.69-3.04 5.53a16.27 16.27 0 0 0-1.63 8.42c.25 3 2.82 5 5.95 4.63 4.07-.48 7.43-2.4 10.57-4.7 5.42-4 9.97-8.76 13.21-14.56a26.82 26.82 0 0 0 3.12-9.09c.47-3.1-1.45-5.9-4.41-6.34-2.03-.3-4 .11-5.89.86-1.1.44-2.16.92-3.2 1.46a11.11 11.11 0 0 1-5.6 1.08 1.12 1.12 0 0 1-.46-.17c-.14-.09-.26-.2-.34-.35-.09-.17.16-.58.38-.76.25-.2.56-.32.89-.35 2.05-.14 3.5-1.25 4.61-2.74 1.25-1.67 2.74-3 4.63-3.95.6-.3 1.05-.43 1.58.18.23.27.9.37 1.31.27a6.89 6.89 0 0 0 3.8-2.37 4.43 4.43 0 0 1 3.43-1.6c.96-.02 1.24.3 1.18 1.2-.04.48-.48 1.11.2 1.41.86.37 1.77.81 2.73.18.72-.48 1.48-.93 2.19-1.42.48-.34.9-.3 1.36 0l.13.09c2 1.38 2.18 1.92.38 3.47-1.6 1.4-1.25 2.83-.72 4.39.07.21.5.45.76.45.71 0 1.42-.18 2.13-.15.26.01.72.39.73.6a36.9 36.9 0 0 1-.1 3.64Z" fill="#F90102"/><path d="M146.27 24.43c-.93 1.99-1.92 3.95-2.89 5.93-.48.97-1.05 1.91-1.43 2.92-.78 2.1-2.43 3.1-4.59 3.5-.83.14-1.69.14-2.54.19-.58.03-1.16.02-1.73.03-.64.02-.88.27-.67.9 1.05 3.16 2.06 6.32 3.11 9.46.42 1.27.26 1.52-1.1 1.51-2.59-.01-5.18-.04-7.77-.02-.67 0-1-.22-1.18-.82-1.13-3.7-2.3-7.4-3.43-11.1-.27-.85.39-2.78 1.14-3.25a2 2 0 0 1 1.01-.23c2.32-.01 4.64-.02 6.95.01.62.01.96-.19 1.22-.71.97-2 1.97-4 2.95-5.99.34-.67.22-.83-.56-.84h-4.38v-.01c-1.33 0-2.65.02-3.97-.01-.72-.02-1.1.17-1.43.87-1.46 3.08-3.05 6.1-4.57 9.17a1048.4 1048.4 0 0 0-5.88 11.98c-.34.71-.8.96-1.6.94-2.45-.05-4.9-.03-7.35-.04-1.25 0-1.46-.33-.9-1.44l7.43-14.68c1.68-3.31 3.38-6.61 5.03-9.93.39-.77.9-1.04 1.81-1.03 5.79.05 11.57.02 17.35.04 2.4.01 4.8.08 7.19.14.52.01 1.03.07 1.54.18 1.43.32 1.84 1.04 1.24 2.33Z" fill="url(#c)"/><path d="M189.45 23.05a8.9 8.9 0 0 0-1.38-.51c-2.28-.75-4.67-.71-7.03-.76-2.94-.05-5.9.06-8.84.06-2.72 0-5.46-.05-8.18-.09-.47 0-.82.07-1.05.55a9887.8 9887.8 0 0 1-12.77 25.35c-.48.95-.31 1.19.75 1.19h9.84v-.04h8.68c2.98.01 5.93-.48 8.73-1.46 2.03-.71 3.87-1.72 4.85-3.68 2.71-5.43 5.39-10.88 8.08-16.31.92-1.85.65-3.08-1.68-4.3Zm-7.71 4.42-4.21 8.55c-1.03 2.07-2.14 4.1-3.08 6.2-.85 1.88-2.43 2.62-4.37 2.72-2.86.15-5.72.14-8.59.2a3.1 3.1 0 0 1-.5-.11c.13-.37.24-.7.4-1.02a3894 3894 0 0 1 9-18.06c.21-.44.5-.7 1.07-.67 2.22.07 4.45.06 6.68.18 1 .06 2 .24 2.97.54.86.26 1 .68.63 1.47Z" fill="url(#d)"/><path d="M113.62 22.26a10.3 10.3 0 0 0-2.35-.36c-2.62-.07-5.24-.1-7.85-.12-2.57-.02-5.13.01-7.7-.03a2.7 2.7 0 0 0-1.99.73c-.53.45-1.12.85-1.76 1.17-2.46 1.35-4.9 2.74-7.42 3.97a6.38 6.38 0 0 0-3.02 3.07c-2.9 5.75-5.82 11.5-8.73 17.24-.12.26-.16.55-.1.82.46 1.65.96 3.28 1.43 4.93.5 1.74.96 3.5 1.49 5.24.09.3.44.52.67.77.27-.2.53-.43.76-.68.18-.23.24-.53.37-.8 3.06-5.94 6.1-11.88 9.15-17.83.37-.73.9-1 1.7-.99h6.94v.08l8.42-.3c2.38-.09 4.14-.93 5.17-3.2 1.8-3.94 3.8-7.8 5.73-11.7.46-.94.15-1.73-.91-2Zm-9.3 3.92c-.56 1.17-1.16 2.32-1.74 3.48-.76 1.54-1.56 3.07-2.29 4.63-.45.96-1.16 1.39-2.26 1.37-2.86-.08-5.73-.1-8.59-.16-.83-.02-1-.27-.64-.96a20911.84 20911.84 0 0 1 3.74-7.55c.5-1.28 1.22-2.2 3.04-1.56h6.92c.39 0 .77-.06 1.15-.07.23 0 .6-.02.66.1a.89.89 0 0 1 0 .7v.02Z" fill="url(#e)"/><path d="M221.35 22.69c-.41.85-.85 1.7-1.22 2.58-.2.45-.47.67-.98.67-4.63 0-9.25.03-13.88 0-.83 0-1.31.18-1.65.95-.77 1.71-1.66 3.38-2.47 5.07-.42.87-.34 1 .67 1l10.41-.13h.66c.82.07 1.05.36.76 1.08-.35.89-.76 1.75-1.23 2.58-.18.31-.65.54-1.04.65-.5.1-1.03.15-1.55.13-3.26-.03-6.5-.08-9.76-.12-1.25-.01-1.55.2-2.08 1.28-.83 1.69-1.71 3.35-2.54 5.04-.42.84-.28 1.02.68 1.02l12.06-.07c.44 0 .88-.08 1.33-.06.82.02 1.08.4.75 1.12-.4.84-.85 1.65-1.22 2.5-.28.66-.75.88-1.48.87-3.9-.02-7.82 0-11.74 0h-11.75c-.99 0-1.2-.3-.76-1.16 3.6-7.12 7.22-14.23 10.83-21.35.6-1.18 1.18-2.37 1.74-3.57.33-.7.77-1.03 1.64-1.03 6.91.03 13.83.02 20.74 0 .8 0 1.6-.11 2.4-.11.79 0 1.02.37.68 1.06Z" fill="url(#f)"/><path d="m159.59 22.93-8.9 17.94c-1.19 2.4-2.39 4.8-3.55 7.2-.27.55-.63.8-1.28.79-1.29-.03-2.59-.01-3.88-.01h-3.97c-.9-.01-1.1-.27-.72-1.08 1-2.07 2.03-4.13 3.06-6.2l9.4-18.84c.34-.66.76-1 1.59-.98 2.48.05 4.96.02 7.44.02 1.08 0 1.26.24.8 1.16Z" fill="url(#g)"/><path d="M196.28 53.12c0 .59-.14 1.13-.8 1.2-1.26.1-2.53.15-3.8.13-1.25-.02-1.47.13-1.56 1.52l.85.05 1.9.09c.59.03.98.22.92.92-.07.65-.41 1.04-1.08 1.06-.83.03-1.66 0-2.49-.05-1.26-.1-1.42-.03-1.97 1.05-.33.65-.2.83.58.85.94.02 1.88 0 2.81 0 .48 0 .98 0 1.02.65.05.7-.37 1.3-1 1.3-2.51.03-5.02.03-7.53 0-.67 0-.84-.35-.5-1.05.83-1.74 1.7-3.47 2.56-5.2.17-.32.3-.65.5-1.09-.93-.08-1.74-.2-2.54-.18-.26 0-.62.33-.76.59-.93 1.84-1.87 3.69-2.72 5.57-.44.99-1.05 1.56-2.25 1.38-.38-.06-.77 0-1.16 0-.92 0-1.08-.2-.7-.98.93-1.88 1.88-3.75 2.83-5.6.42-.82.35-.94-.58-.98-.59-.03-1.17-.12-1.95-.2l-2.89 5.7-.2.44c-.87 1.72-1.15 1.9-3.13 1.58-.39-.06-.82-.5-1.02-.88-.38-.72-.6-1.52-.9-2.28-.12-.33-.27-.66-.41-.99l-.25-.03c-.44.85-.9 1.7-1.32 2.56-.77 1.58-1.93 2.12-3.7 1.61-.2-.05-.42-.6-.36-.85.16-.56.38-1.1.67-1.6.98-1.94 2.01-3.86 2.97-5.81.73-1.5 2.04-1.37 3.3-.98.3.1.5.6.66.95.43 1.01.81 2.04 1.3 3.29.3-.43.5-.65.63-.91.42-.86.85-1.72 1.2-2.6.29-.68.74-.96 1.51-.96 3.77.03 7.54-.1 11.3.08 1.42.07 2.8-.18 4.2-.08 1.4.09 2.81.02 4.21.02.25-.02.5-.01.75.02.41.07.9.1.9.7ZM105.08 52.48c-2.4-.04-4.8-.08-7.19-.07-.57 0-1.14.2-1.67.29-.54-.1-1.08-.28-1.62-.3-2.04-.03-4.08-.01-6.12 0-.63 0-1.27.05-1.9.1-.76.04-.82.63-.82 1.14 0 .57.44.73.98.7.22-.02.44 0 .66 0 1.05.04 1.12.17.66 1.06-.92 1.82-1.85 3.63-2.76 5.46-.37.75-.18 1.03.66 1.04h1.74c.72 0 1.16-.36 1.46-.97.97-2 1.93-4 2.96-5.98.1-.15.24-.29.4-.4.16-.1.35-.16.54-.18.73-.04 1.46.1 2.3.19-.07.26-.16.5-.26.76-.86 1.7-1.72 3.4-2.6 5.1-.62 1.23-.46 1.4.93 1.5 1.58.12 2.63-.31 3.1-1.86.24-.75.73-1.43 1.1-2.14l.23.02c.09.2.2.4.27.6.28.85.5 1.72.84 2.55.13.32.47.73.77.77.77.08 1.54.08 2.3.01.61-.04.89-.38.7-.98l-.64-1.95c-.36-1.05-.36-1.09.76-1.1.99-.03 1.66-.39 2.06-1.27.39-.85.85-1.66 1.25-2.5.55-1.15.27-1.57-1.09-1.6Zm-6.41 3.73c.27-1.82 1.3-2.34 3.33-1.72-.21 1.58-1.24 2.13-3.34 1.72ZM57.18 23.55a25.2 25.2 0 0 1-1.84 2.33c-.26.27-.73.44-1.13.5-.54.08-1.1.02-1.65.02v-.1c-5.37-.13-10.74-.24-16.1-.41-5.37-.17-10.73-.4-16.1-.63-4-.17-8.02-.4-12.03-.57-.82-.03-1.64.06-2.46.09-.3.03-.6.02-.9-.02-.17-.04-.32-.24-.47-.36.15-.12.28-.3.46-.34.26-.07.54-.1.81-.08 4.38-.07 8.77-.06 13.15-.2 5.86-.19 11.71-.5 17.57-.75 1.73-.07 3.48-.1 5.2-.15l14.2-.48c.25-.01.5-.01.75.01.76.1.98.54.54 1.14ZM206.26 52.55c-2.08-.07-4.17-.02-6.26-.02v-.14c-.38.02-.77.02-1.16 0-.94-.09-1.54.27-1.94 1.11-.84 1.77-1.77 3.5-2.65 5.25-.35.71-.7 1.43-.97 2.17-.25.67-.03.97.66.99.58 0 1.16.01 1.74-.02.57-.02 1.02-.25 1.27-.82.36-.82.8-1.62 1.22-2.41.1-.18.31-.32.47-.46.14.17.33.33.41.52.2.52.35 1.05.52 1.58.52 1.61.52 1.61 2.25 1.61h.99c.8-.03 1.07-.33.84-1.05-.2-.63-.46-1.23-.7-1.85-.36-.91-.33-.97.66-1.05 1-.07 1.8-.38 2.2-1.35.38-.88.87-1.7 1.28-2.56.49-.98.26-1.47-.83-1.5Zm-6.73 3.7c.44-1.93 1.22-2.32 3.36-1.74-.04 1.5-1.11 2.06-3.36 1.74ZM117.98 53.54c-1.2 2.39-2.44 4.77-3.64 7.15-.58 1.15-1.7 1.11-2.76 1.2-.7.05-1.43 0-2.15 0v-.13c-1.65 0-3.3.02-4.95 0-.8-.02-1.1-.45-.76-1.16 1.22-2.55 2.47-5.1 3.72-7.64.09-.17.3-.42.44-.42 1-.03 2.04-.12 3 .08.63.13.32.77.1 1.2l-2.66 5.16c-.44.87-.34.85.67.98 1.51.2 2.27-.37 2.8-1.7.66-1.69 1.58-3.29 2.34-4.95.3-.67.74-.99 1.52-.92.54.04 1.1-.03 1.65.02.78.07 1.02.48.69 1.13ZM155.7 53.96l-.1.22c-.8 1.83-1.68 2.31-3.72 2.03-.65-.1-.64-.55-.48-.95.28-.7-.1-.83-.68-.88-1.84-.18-1.82-.18-2.62 1.44-.5 1.03-1.06 2.02-1.58 3.03-.54 1.04-.5 1.11.68 1.1h.58c.84.15 1.37-.1 1.55-.96.12-.55.53-.82 1.16-.79.66.04 1.32 0 1.99.04.61.04.96.35.67.95a13.8 13.8 0 0 1-1.19 2.12c-.17.25-.65.4-1 .43-1.28.11-2.58.16-3.87.23v-.2c-1.46 0-2.91.02-4.37 0-.97-.01-1.22-.4-.8-1.26.68-1.44 1.39-2.86 2.1-4.28.48-.95 1-1.87 1.47-2.82.12-.31.34-.58.63-.76.3-.18.63-.27.98-.25 2.53.02 5.07.03 7.6.1 1.17.02 1.4.42 1 1.46ZM129.13 53.95c-.82 2.1-1.45 2.47-3.78 2.26-.62-.06-.67-.43-.54-.91.24-.87.2-.92-.76-.94-2.21-.04-1.68-.27-2.59 1.54-.53 1.07-1.1 2.11-1.64 3.18-.33.67-.21.85.54.86h.66c.96.16 1.6-.1 1.81-1.08.1-.46.47-.67 1-.65.66.04 1.32 0 1.98.03.74.03 1.02.42.75 1.04-.29.69-.64 1.34-1.07 1.95-.2.28-.68.46-1.05.5-1.26.12-2.52.16-3.78.22v-.2c-1.5 0-2.98.03-4.46 0-1-.03-1.28-.48-.88-1.27 1.13-2.25 2.3-4.48 3.4-6.74a2.19 2.19 0 0 1 2.19-1.34c2.42.04 4.84.06 7.26.12 1.08.02 1.35.46.96 1.43ZM140.3 52.96a1.17 1.17 0 0 1-.5.82 94.17 94.17 0 0 1-4.33 2.76c-.71.42-.87.8-.43 1.51.57.94 1.07 1.9 1.52 2.9.3.62.06.91-.67.95h-.16c-2.76.05-2.76.05-3.86-2.34-.12-.26-.27-.5-.5-.92-.36.72-.6 1.31-.94 1.86-.27.44-.58 1.07-1 1.17-.88.22-1.84.18-2.77.17-.1 0-.33-.51-.28-.72a12 12 0 0 1 .76-1.73c1.02-2.04 2.07-4.07 3.05-6.12.3-.62.74-.88 1.41-.86.47-.02.94 0 1.4.04 1.08.13 1.23.42.79 1.35-.13.28-.23.56-.34.85l.2.16c.76-.54 1.55-1.06 2.27-1.65 1.1-.9 2.4-.79 3.69-.7.25 0 .69.32.69.5ZM55.24 44.63c-.46.28-.9.6-1.3.96-.59.52-1.04.54-1.64.04-1.2-1.02-1.2-1.02-2.57-.2l-8.76 5.22c-1.04.62-2.91-.43-2.94-1.83.15-.16.38-.48.7-.67 3.3-2.1 6.61-4.17 9.93-6.25.78-.49 1.57-.97 2.33-1.5.58-.4 1.05-.41 1.6.1.92.87 1.9 1.68 2.85 2.52.8.7.74 1.06-.2 1.61ZM29.47 56.91c-.33.3-.6.65-.97.88l-13.48 8.39a12 12 0 0 1-1.42.78c-.16.07-.53.04-.62-.07a.62.62 0 0 1 .02-.61c.48-.6 1.02-1.16 1.54-1.74l10.47-11.46c.03-.04.06-.1.1-.12l1.3-.68.57 1.3c-.33 1.34.42 2.05 1.5 2.6.36.18.66.48.99.73ZM164.44 54.38c-1.2.09-2.41-.03-3.62.02-.38.01-.93.2-1.07.46-.51.92-.3 1.16.82 1.16.56-.02 1.1-.01 1.66.03.44.05.96.06 1 .71.01.6-.17 1.1-.8 1.2-.84.15-1.7.19-2.54.12-1.94-.2-1.79-.02-2.5 1.77.68.02 1.27.06 1.86.07.59.02 1.21 0 1.82.01.46.01.98-.06.97.64-.01.8-.33 1.27-.97 1.32-.41.03-.83.02-1.24.02l-6.03-.01c-.87 0-1.14-.33-.78-1.08a368.9 368.9 0 0 1 3.92-7.88c.15-.27.65-.51 1-.52 2.14-.05 4.3-.05 6.44 0 .51 0 1.24-.14 1.3.72.04.74-.27 1.17-1.24 1.24ZM92.98 21.68c-.2.27-.35.65-.63.81-1.5.87-3.04 1.7-4.57 2.53-3.24 1.73-6.48 3.47-9.74 5.17-.33.17-.8.1-1.2.14-.05-.44-.27-1-.07-1.3.4-.61.92-1.15 1.52-1.6.96-.73 2.03-1.35 3-2.08.73-.53 1.18-1.24 1.04-2.18-.03-.26.06-.53.06-.8-.01-.67.35-.94 1.02-.94h4.55c1.38 0 2.76-.02 4.14.01.3.01.59.16.88.24ZM65.74 53.6c0 1.94.01 3.88-.01 5.83 0 .24-.2.48-.3.72-.25-.14-.58-.22-.73-.43-1.1-1.53-2.2-3.08-3.23-4.66-.16-.26-.13-.87.07-1.05 1.05-.94.96-2.12.9-3.3-.07-1.17 1.35-3.44 2.52-3.79.69-.2.79.28.79.77v5.9ZM72.53.82c-.04.7-.16 1.4-.25 2.1-.15 1.04-.33 2.07-.42 3.11-.15 1.5-.2 1.56-1.87 1.56a4.84 4.84 0 0 0-3.21 1.03c-.75.53-1.45 1.13-2.18 1.68-.25.2-.54.35-.85.42a1 1 0 0 1-.77-.25c-.1-.11.02-.5.17-.69.7-.87 1.43-1.72 2.17-2.57L71.15.58c.07-.08.13-.18.23-.22.27-.14.56-.24.85-.36.1.27.31.55.3.82ZM68.26 23.85c-.01 2.38-.21 2.57-2.53 2.52-.6 0-1.2-.07-1.8-.16-.73-.12-.95-.57-.62-1.2l1.49-2.8c.36-.65 1.03-.9 1.98-.75.78.13 1.33.5 1.42 1.3.04.41.04.83.06 1.09Z" fill="#7D9197"/></g><defs><linearGradient id="c" x1="125.46" y1="21.74" x2="125.46" y2="48.87" gradientUnits="userSpaceOnUse"><stop offset=".44" stop-color="#7D9197"/><stop offset=".55"/><stop offset="1" stop-color="#7D9197" stop-opacity="0"/></linearGradient><linearGradient id="d" x1="170.78" y1="21.75" x2="170.78" y2="48.84" gradientUnits="userSpaceOnUse"><stop offset=".44" stop-color="#7D9197"/><stop offset=".55"/><stop offset="1" stop-color="#7D9197" stop-opacity="0"/></linearGradient><linearGradient id="e" x1="93.7" y1="21.75" x2="93.7" y2="59.69" gradientUnits="userSpaceOnUse"><stop offset=".44" stop-color="#7D9197"/><stop offset=".55"/><stop offset="1" stop-color="#7D9197" stop-opacity="0"/></linearGradient><linearGradient id="f" x1="202.3" y1="21.63" x2="202.3" y2="48.85" gradientUnits="userSpaceOnUse"><stop offset=".44" stop-color="#7D9197"/><stop offset=".55"/><stop offset="1" stop-color="#7D9197" stop-opacity="0"/></linearGradient><linearGradient id="g" x1="148.46" y1="21.75" x2="148.46" y2="48.86" gradientUnits="userSpaceOnUse"><stop offset=".44" stop-color="#7D9197"/><stop offset=".55"/><stop offset="1" stop-color="#7D9197" stop-opacity="0"/></linearGradient><clipPath id="a"><path fill="#fff" transform="translate(4.5)" d="M0 0h217v67H0z"/></clipPath><filter id="b" x=".5" y="0" width="225" height="75" filterUnits="userSpaceOnUse" color-interpolation-filters="sRGB"><feFlood flood-opacity="0" result="BackgroundImageFix"/><feColorMatrix in="SourceAlpha" values="0 0 0 0 0 0 0 0 0 0 0 0 0 0 0 0 0 0 127 0" result="hardAlpha"/><feOffset dy="4"/><feGaussianBlur stdDeviation="2"/><feComposite in2="hardAlpha" operator="out"/><feColorMatrix values="0 0 0 0 0 0 0 0 0 0 0 0 0 0 0 0 0 0 0.25 0"/><feBlend in2="BackgroundImageFix" result="effect1_dropShadow_1405_5810"/><feBlend in="SourceGraphic" in2="effect1_dropShadow_1405_5810" result="shape"/></filter></defs></svg>