<svg width="280" height="70" viewBox="0 0 730 200" fill="none" xmlns="http://www.w3.org/2000/svg"><path d="M193.29 96.76a96.4 96.4 0 0 1-8.05 38.66c-.16.35-.3.72-.48 1.07-.22.51-.46 1.03-.72 1.53l-.5 1.07a103 103 0 0 1-.82 1.63l-.49.94a106.7 106.7 0 0 1-2.25 4.04c-.3.5-.47.8-.72 1.19l-.5.79-.72 1.12-.91 1.4-.52.77-.5.72-.3.41a136 136 0 0 1-2.88 3.87 86.83 86.83 0 0 1-3.26 3.96 95.26 95.26 0 0 1-4.72 5.1l-.72.72c-.64.63-1.3 1.25-1.95 1.86l-1.2 1.08a98 98 0 0 1-3.07 2.65l-1.07.86-1 .8-.57.44a96.01 96.01 0 0 1-10.24 6.92l-1.06.6-1.47.84-.86.46c-.69.37-1.38.72-2.08 1.06l-.95.47a90.46 90.46 0 0 1-3.3 1.52l-1.16.5-1.62.66c-.91.37-1.85.72-2.78 1.07l-1.01.36-1.3.45c-.56.2-1.12.37-1.69.55h-.04l-1.71.53c-2.36.72-4.76 1.3-7.2 1.81-.45.1-.89.2-1.32.28l-.67.13-1.44.26c-1.24.22-2.48.42-3.74.58l-1.73.22-1.36.15h-.21l-.72.06c-.5.06-1 .1-1.5.13l-1.78.12-1.65.08h-.44c-.55 0-1.12 0-1.67.04-.56.05-1.26 0-1.9 0-1.44 0-2.82 0-4.22-.1l-1.22-.05a96.2 96.2 0 0 1-63.23-28.56l.26.2s30.49-20.18 40.75-39.74a28.59 28.59 0 0 0 3.09-8.82c.18-1.17.24-2.36.2-3.54-1.09-22.24-1.63-36.92-1.63-44.05.11-11.89 4.22-18.32 12.33-19.3 5.18-.75 9.32.06 12.4 2.44 3.08 2.37 4.78 6.1 5.1 11.2.44 6.6-1.94 12.24-7.12 16.95a49.16 49.16 0 0 1-18.82 10.46c2.74.14 5.46.48 8.15 1 8 1.61 14.39 4.96 19.18 10.04 6.33 6.72 9.38 14.89 9.16 24.5-.22 14.28-4.76 23.96-13.62 29.04a24.68 24.68 0 0 1-5.7 2.34c-8.17 2.28-18.5.95-30.98-3.99a31.04 31.04 0 0 0 10.54 12.5 37.69 37.69 0 0 0 17.9 6.71c4.7.46 9.46.11 14.05-1.04a46.81 46.81 0 0 0 15.97-7.13c4.8-3.36 8.83-8.12 12.09-14.28a49.2 49.2 0 0 0 5.35-21.1 42.45 42.45 0 0 0-8.6-27.66c-4.02-5.46-8.66-9.37-13.92-11.74a30.38 30.38 0 0 0-8.95-2.45c5.28-1.62 9.26-5.24 11.92-10.87 2.67-5.63 3.83-11.1 3.49-16.39-.76-9.61-4.87-16.48-12.33-20.6a32.19 32.19 0 0 0-11.89-3.6c-5.6-.67-12.12-.34-19.56.97-9.94 1.9-20.08 2.5-30.17 1.78.37 2.4.7 5.73.99 9.97.69 10.31 1.09 26.08 1.2 47.3.1 17.22-38.84 36.76-41.38 38.04a96.8 96.8 0 0 1 9.17-90.95l.66-.96a93.51 93.51 0 0 1 5.7-7.43c.23-.27.46-.54.72-.81.26-.27.5-.59.76-.87a95.54 95.54 0 0 1 6.93-7.06l.89-.8a97.1 97.1 0 0 1 8.85-7.06l.63-.43.95-.66.87-.58c1.7-1.13 3.44-2.17 5.22-3.22l.85-.47a99.35 99.35 0 0 1 3.1-1.66l1.04-.53 1.34-.65.77-.36c.72-.34 1.44-.66 2.16-.97l.72-.32.88-.38.95-.39.68-.26.38-.16c.6-.23 1.21-.46 1.83-.72 1.5-.54 3.02-1.06 4.56-1.54l1.44-.43a119.35 119.35 0 0 1 4.98-1.31c1.05-.26 2.09-.48 3.15-.72l.8-.16c.96-.18 1.94-.36 2.92-.51l1.4-.21.82-.12.82-.1.47-.06.97-.12 1.5-.1c.44-.05.89-.1 1.33-.12l.57-.05c1.23-.1 2.46-.17 3.7-.21H99.57c.47 0 .93 0 1.4.05.47.05.89 0 1.34.06h.12c.44 0 .88.05 1.31.09l1.38.1c1.32.12 2.63.26 3.94.43l.37.05 1.16.15 1.35.2 1.35.24.97.17.77.14a96.52 96.52 0 0 1 78.26 94.82Z" fill="url(#a)"/><path fill-rule="evenodd" clip-rule="evenodd" d="M111.15 125.91c-.22 14.28-4.76 23.96-13.62 29.05a24.69 24.69 0 0 1-5.7 2.34 8.65 8.65 0 0 0-2.27-6.39l-18.2-19.76a8.6 8.6 0 0 1-2.27-6.07 28.58 28.58 0 0 0 3.1-8.86l10.62-24.85c8 1.6 14.39 4.95 19.18 10.03 6.33 6.72 9.38 14.9 9.16 24.51Z" fill="url(#b)"/><path d="M185.71 134.34c.2-.46.38-.92.57-1.39l-46.55-29.63c-11.54-8.3-24.21-13.52-25.46-13.76 5.26 2.36 9.9 6.28 13.92 11.74a42.46 42.46 0 0 1 8.6 27.66 49.19 49.19 0 0 1-5.35 21.1c-3.26 6.15-7.29 10.9-12.09 14.27a46.83 46.83 0 0 1-15.97 7.14 41.37 41.37 0 0 1-14.05 1.03l-3.4 20.19c1.78.2 3.59.35 5.4.45l1.22.06c1.4.1 2.79.1 4.23.1.63 0 1.34.03 1.9 0 .55-.05 1.1-.05 1.66-.05h.44l1.65-.08c.6-.03 1.27-.08 1.77-.12.5-.03 1.01-.08 1.5-.13l.73-.06h.2l1.37-.15 1.73-.22c1.26-.17 2.5-.36 3.74-.58l1.45-.26.66-.13 1.32-.28a82 82 0 0 0 7.2-1.81l1.71-.53h.05l1.68-.55 1.3-.45 1-.36c.94-.35 1.88-.7 2.8-1.07l1.6-.66 1.17-.5c.35-.16.72-.31 1.07-.48.75-.34 1.5-.68 2.23-1.04l.95-.47c.7-.34 1.4-.7 2.08-1.06l.86-.46 1.47-.83 1.06-.6a96.01 96.01 0 0 0 10.24-6.94l.57-.44c.34-.25.67-.52 1-.79l1.07-.86a99.16 99.16 0 0 0 3.08-2.65l1.19-1.09c.65-.6 1.3-1.22 1.95-1.85l.72-.73a95.65 95.65 0 0 0 6.97-7.75l.1-.13.92-1.17c.74-.96 1.46-1.92 2.16-2.88.26-.33.49-.66.72-.99l.29-.4.5-.73.52-.77.92-1.4.72-1.12.49-.8c.25-.38.41-.67.72-1.18a103.16 103.16 0 0 0 2.25-4.04c.17-.31.32-.63.5-.94a117.71 117.71 0 0 0 1.32-2.7c.26-.5.49-1.02.72-1.53l.47-1.07c.16-.35.28-.61.47-1.08Z" fill="url(#c)"/><path fill-rule="evenodd" clip-rule="evenodd" d="M117.83 14.12 96.5 35.74c-5.6-.66-12.12-.33-19.56.98-9.94 1.9-20.08 2.5-30.17 1.78.37 2.4.7 5.72.99 9.97a8.58 8.58 0 0 0-3.53 4.02L38 67.12a7.32 7.32 0 0 1-13.63-.48l-8.04-23.28.4-.59.66-.96a93.51 93.51 0 0 1 6.42-8.24c.26-.27.5-.59.76-.87a95.52 95.52 0 0 1 6.93-7.06l.89-.8a97.1 97.1 0 0 1 8.85-7.06l.63-.43.95-.66.87-.58c1.7-1.13 3.44-2.17 5.22-3.22l.85-.47a99.35 99.35 0 0 1 3.1-1.66l1.04-.53 1.34-.65.77-.36c.72-.34 1.44-.66 2.16-.97l.72-.32.88-.38.95-.39.68-.26.38-.16c.6-.23 1.21-.46 1.83-.72 1.5-.54 3.02-1.06 4.56-1.54l1.44-.43a119.51 119.51 0 0 1 4.98-1.31c1.05-.26 2.09-.48 3.15-.72l.8-.16c.96-.18 1.94-.36 2.92-.51l1.4-.21.82-.12.82-.1.47-.06.97-.12 1.5-.1c.44-.05.89-.1 1.33-.12l.57-.05c1.23-.1 2.46-.17 3.7-.21H99.57c.47 0 .93 0 1.4.05.47.05.9 0 1.34.06h.12c.44 0 .88.05 1.31.09l1.38.1c1.32.12 2.63.26 3.94.43l.37.05 1.16.15 1.35.2 1.35.24.97.17.77.14c1.2.23 2.4.49 3.6.76l.68 1.25a8.65 8.65 0 0 1-1.48 10.17Z" fill="url(#d)"/><path d="M243.38 128.28V66.01h23.17c3.35 0 6.4.7 9.12 2.09a15.63 15.63 0 0 1 6.45 5.87c1.6 2.55 2.4 5.55 2.4 8.99 0 1.39-.19 2.83-.57 4.31a11.67 11.67 0 0 1-1.87 4.1 8.11 8.11 0 0 1-3.56 2.84 9.07 9.07 0 0 1 4.72 2.67 13.1 13.1 0 0 1 2.7 4.45 21.87 21.87 0 0 1 1.25 5.11c.21 1.75.31 3.34.31 4.76 0 3.2-.82 6.1-2.49 8.68a17.89 17.89 0 0 1-6.71 6.14 19.1 19.1 0 0 1-9.25 2.26h-25.67Zm12.28-10.45h12.1c1.63 0 3.1-.39 4.44-1.16a9.08 9.08 0 0 0 3.2-3.24c.8-1.4 1.2-2.97 1.2-4.72 0-1.48-.4-2.89-1.2-4.22a9.58 9.58 0 0 0-3.2-3.25 8.04 8.04 0 0 0-4.44-1.3h-12.1v17.9Zm0-28.11h9.47c1.96 0 3.63-.64 5.03-1.91a6.39 6.39 0 0 0 2.09-4.94c0-2.08-.7-3.65-2.1-4.72a7.88 7.88 0 0 0-5.02-1.64h-9.47v13.2ZM313.02 66H327l22.6 62.27h-13.04l-3.73-10.32H307.2l-3.74 10.32h-13.03l22.6-62.27Zm-1.33 39.68h16.63l-8.36-22.82-8.27 22.82Zm43.72 22.6V116l33.76-37.72h-33.76V66h50.36v12.28L372 116h33.77v12.27H355.4ZM434.13 66h13.97l22.6 62.27h-13.04l-3.73-10.32H428.3l-3.74 10.32h-13.03l22.6-62.27Zm-1.33 39.68h16.63l-8.36-22.82-8.27 22.82Zm45.15 22.6V66h24.74c3.38 0 6.43.86 9.16 2.58a18.37 18.37 0 0 1 6.54 6.85c1.63 2.85 2.45 6 2.45 9.47 0 2.73-.48 5.27-1.43 7.61a18.76 18.76 0 0 1-10 10.19l14.8 25.57h-14.14l-14.19-24.46h-5.65v24.46h-12.28Zm12.28-36.75h10.99a7 7 0 0 0 3.65-.98 7.55 7.55 0 0 0 3.69-6.54c0-1.36-.34-2.6-1.02-3.73a7.45 7.45 0 0 0-2.67-2.76 6.77 6.77 0 0 0-3.65-1.02h-10.99v15.03Zm64.75 37.9c-3.5 0-6.85-.55-10.05-1.64a25.28 25.28 0 0 1-8.36-4.77 17.8 17.8 0 0 1-5.12-7.38l11.52-4.27c.36 1 1.1 1.96 2.23 2.85 1.12.86 2.53 1.57 4.22 2.13 1.7.54 3.55.8 5.56.8 1.93 0 3.74-.28 5.43-.84 1.72-.6 3.1-1.41 4.14-2.45a4.93 4.93 0 0 0 1.6-3.65c0-1.39-.55-2.55-1.65-3.47-1.1-.92-2.5-1.64-4.22-2.17-1.72-.57-3.49-1-5.3-1.3-4.48-.65-8.5-1.7-12.05-3.15a20.58 20.58 0 0 1-8.36-6.1c-2.05-2.6-3.08-5.91-3.08-9.92 0-3.85 1.09-7.22 3.25-10.1a21.95 21.95 0 0 1 8.63-6.71c3.6-1.6 7.46-2.4 11.61-2.4 3.44 0 6.76.55 9.97 1.64 3.2 1.1 5.99 2.69 8.36 4.76a17.54 17.54 0 0 1 5.16 7.48l-11.52 4.18c-.36-1.01-1.1-1.95-2.23-2.8a13.73 13.73 0 0 0-4.22-2.1c-1.7-.53-3.53-.8-5.52-.8-1.9-.03-3.7.25-5.43.85-1.68.6-3.08 1.4-4.18 2.44a4.83 4.83 0 0 0-1.6 3.56c0 1.75.5 3.07 1.51 3.96a9.38 9.38 0 0 0 4.1 1.91c1.69.39 3.56.73 5.6 1.03 4.21.62 8.1 1.73 11.66 3.33a22.35 22.35 0 0 1 8.54 6.32c2.16 2.61 3.24 5.8 3.24 9.56 0 3.86-1.08 7.22-3.24 10.1a21.6 21.6 0 0 1-8.59 6.72 27.97 27.97 0 0 1-11.6 2.4Zm78.64-63.43v12.28h-18.33v50h-12.28v-50H584.7V66h48.93Zm20.93 0h13.96l22.6 62.27h-13.03l-3.74-10.32h-25.62l-3.74 10.32h-13.03l22.6-62.27Zm-1.34 39.68h16.64l-8.36-22.82-8.28 22.82Zm45.16 22.6V66h13.25l24.3 40.08V66h12.27v62.27h-13.26l-24.28-40.07v40.07h-12.28Z" fill="#007DF2"/><defs><linearGradient id="a" x1="96.76" y1=".26" x2="96.76" y2="193.31" gradientUnits="userSpaceOnUse"><stop offset="0" stop-color="#fff"/><stop offset="1" stop-color="#0076FF"/></linearGradient><linearGradient id="b" x1="46.09" y1="117.37" x2="116.68" y2="119.53" gradientUnits="userSpaceOnUse"><stop stop-color="#00FF38"/><stop offset="0" stop-color="#fff"/><stop offset="1" stop-color="#6054E8"/></linearGradient><linearGradient id="c" x1="102.03" y1="193.31" x2="166.99" y2="119.63" gradientUnits="userSpaceOnUse"><stop stop-color="#4735FF"/><stop offset="1" stop-color="#958BFF"/></linearGradient><linearGradient id="d" x1="26.28" y1=".26" x2="68.36" y2="71.53" gradientUnits="userSpaceOnUse"><stop stop-color="#fff"/><stop offset="1" stop-color="#6054E8"/></linearGradient></defs></svg>