<svg width="216" height="33" fill="none" xmlns="http://www.w3.org/2000/svg"><g clip-path="url(#a)"><path d="M4.9 25.03h14.64s-2.38 4.74-3.74 7.37H.69c-.23 0 1.58-3.1 4.2-7.37Z" fill="#1462B0"/><path d="M40.02 32.4h-6.8L20.35 12.56l-5.32 8.37h-7.6A1993.3 1993.3 0 0 1 20.34.44L40.02 32.4Z" fill="#162830"/><path d="m48.72.44-11.1 13.18 11.1 18.49h7.4L43.87 13.62 56.12.44h-7.4Z" fill="url(#b)"/><path d="M67 7.5 69.52.42h.7l2.51 7.08h-.6L69.7.7H70L67.6 7.5H67Zm1.04-1.78v-.53h3.64v.54l-3.64-.01ZM76.76 7.5V.42H79.79c.5.07.97.31 1.33.67.37.34.65.76.82 1.24a5.05 5.05 0 0 1 0 3.28c-.17.47-.45.9-.82 1.22-.37.34-.84.55-1.33.6a3.6 3.6 0 0 1-.53.04H76.8l-.04.03Zm.59-.56h2l.4-.04c.4-.06.78-.24 1.07-.52.28-.3.48-.65.58-1.04a4.92 4.92 0 0 0 0-2.76 2.4 2.4 0 0 0-.59-1.02c-.3-.29-.68-.48-1.09-.54-.11 0-.24 0-.4-.04h-1.97v5.96ZM87.97 7.5 85.47.42h.6l2.25 6.4 2.27-6.4h.6L88.68 7.5h-.7ZM93.9 7.5 96.4.42h.7l2.51 7.08h-.59L96.6.7h.29l-2.4 6.79h-.6Zm1.02-1.78v-.53h3.64v.54l-3.64-.01ZM103.64 7.5V.42h.58l4.1 6.07V.42h.57V7.5h-.58l-4.1-6.08V7.5h-.57ZM115.35 7.5V.94h-2.53V.42h5.64v.55h-2.54v6.55l-.57-.02ZM121.7 7.5l2.51-7.08h.7l2.51 7.08h-.6L124.42.7h.29l-2.4 6.79h-.6Zm1.03-1.78v-.53h3.64v.54l-3.64-.01ZM134.07 7.65a3.4 3.4 0 0 1-1.37-.27 2.81 2.81 0 0 1-1-.75c-.29-.35-.5-.74-.63-1.16a5.2 5.2 0 0 1-.2-1.51c-.02-.66.1-1.32.36-1.93.23-.52.6-.97 1.09-1.28.52-.33 1.13-.5 1.75-.48.62-.02 1.24.15 1.76.5.45.33.8.79.97 1.32l-.56.17a2.15 2.15 0 0 0-.82-1.04c-.4-.27-.87-.4-1.35-.4a2.52 2.52 0 0 0-1.45.4c-.38.28-.66.67-.82 1.1a4.4 4.4 0 0 0-.3 1.65c-.02.56.08 1.11.28 1.64.17.43.46.8.84 1.08a2.92 2.92 0 0 0 2.8.08 2 2 0 0 0 .83-.94c.18-.44.28-.91.28-1.39h-1.78v-.51h2.34V4.36a4.1 4.1 0 0 1-.33 1.7c-.2.48-.56.9-1 1.18-.52.29-1.1.43-1.7.4ZM141.25 7.5V.42h4.37v.55h-3.8v2.68h3.21v.56h-3.22v2.74h3.81v.55h-4.37ZM155.06 7.5V.42h.57v3.36L159 .42h.74l-3.36 3.4 3.68 3.68h-.75l-3.68-3.62V7.5h-.57ZM163.87 7.5V.42h.57l4.1 6.07V.42h.58V7.5h-.58l-4.1-6.08V7.5h-.57ZM173.74 7.5V.42h.56V7.5h-.56ZM181.73 7.65a3.4 3.4 0 0 1-1.36-.27 2.8 2.8 0 0 1-1.05-.75 3.53 3.53 0 0 1-.62-1.16c-.14-.5-.2-1-.2-1.51 0-.66.12-1.32.38-1.93.23-.53.61-.98 1.1-1.28.53-.33 1.14-.5 1.75-.48.63-.02 1.25.15 1.77.5.45.33.79.79.96 1.32l-.55.17a2.15 2.15 0 0 0-.82-1.04 2.53 2.53 0 0 0-2.75 0c-.4.28-.7.66-.88 1.1a4.4 4.4 0 0 0-.3 1.65c-.01.56.08 1.11.29 1.64.17.44.48.83.88 1.1a2.93 2.93 0 0 0 2.8.08 2 2 0 0 0 .83-.93c.18-.44.27-.92.27-1.4h-1.75v-.53h2.34V4.34c.02.58-.1 1.16-.32 1.7-.23.49-.6.9-1.08 1.17-.5.3-1.1.45-1.69.44ZM188.91 7.5V.42h.57V3.7h4.1V.42h.57V7.5h-.58V4.22h-4.1V7.5h-.56ZM200.63 7.5V.94h-2.53V.42h5.64v.55h-2.54v6.55l-.57-.02ZM210.05 7.65c-.44 0-.89-.08-1.3-.24-.38-.15-.7-.39-.97-.7-.25-.29-.43-.65-.5-1.04l.58-.1c.12.47.41.87.82 1.12.42.28.92.42 1.43.4.35.01.69-.05 1.01-.17.27-.11.5-.29.69-.52.17-.24.25-.53.24-.82a1.07 1.07 0 0 0-.41-.88 1.7 1.7 0 0 0-.39-.23c-.13-.06-.26-.1-.4-.14l-1.77-.54a3.18 3.18 0 0 1-.63-.25c-.17-.1-.33-.22-.47-.36a1.54 1.54 0 0 1-.4-1.05c0-.36.11-.7.32-1 .2-.29.5-.52.82-.66.39-.17.8-.25 1.23-.24.43 0 .85.08 1.24.26.37.16.68.4.92.71.24.33.4.7.46 1.1l-.59.1c-.04-.3-.16-.58-.34-.82a2.07 2.07 0 0 0-1.7-.76 2 2 0 0 0-.91.17c-.25.1-.46.27-.62.48-.16.19-.24.43-.23.68a.9.9 0 0 0 .21.62c.15.16.33.28.53.37.19.08.39.15.6.21l1.42.43.48.16c.2.08.38.19.55.31a1.57 1.57 0 0 1 .63 1.35 1.8 1.8 0 0 1-.7 1.47 3.58 3.58 0 0 1-1.84.58Z" fill="#000"/><path d="M68.09 32.36v-17.7h2.96v14.92h7.82v2.78H68.1Z" fill="url(#c)"/><path d="M89.43 32.73a8.49 8.49 0 0 1-4.55-1.17 7.57 7.57 0 0 1-2.9-3.23 10.8 10.8 0 0 1-.99-4.82 10.8 10.8 0 0 1 1.02-4.82 7.57 7.57 0 0 1 2.9-3.24 9.49 9.49 0 0 1 9.1 0 7.6 7.6 0 0 1 2.92 3.24c.7 1.51 1.04 3.16 1 4.82.04 1.66-.3 3.31-1 4.82a7.6 7.6 0 0 1-2.92 3.23 8.52 8.52 0 0 1-4.58 1.17Zm0-2.79a5.16 5.16 0 0 0 2.97-.82 4.86 4.86 0 0 0 1.78-2.25 8.8 8.8 0 0 0 .6-3.4 8.69 8.69 0 0 0-.6-3.37 4.92 4.92 0 0 0-1.78-2.23 5.37 5.37 0 0 0-2.97-.82 5.09 5.09 0 0 0-2.96.82 4.92 4.92 0 0 0-1.78 2.25 8.96 8.96 0 0 0-.6 3.39c-.02 1.15.18 2.3.6 3.38.35.9.97 1.67 1.77 2.22.89.57 1.92.85 2.97.83Z" fill="url(#d)"/><path d="M109.14 32.73c-1.1 0-2.2-.2-3.22-.6-1-.41-1.9-1.02-2.65-1.8a8.33 8.33 0 0 1-1.8-2.9 11.16 11.16 0 0 1-.63-3.92c-.05-1.72.32-3.42 1.08-4.96a7.75 7.75 0 0 1 2.97-3.16 8.27 8.27 0 0 1 4.23-1.1 8.2 8.2 0 0 1 5.2 1.55 7.58 7.58 0 0 1 2.59 4.26l-3.02.48a5.2 5.2 0 0 0-1.64-2.51 4.4 4.4 0 0 0-2.91-.94 5.06 5.06 0 0 0-2.97.78 4.81 4.81 0 0 0-1.77 2.24 8.8 8.8 0 0 0-.6 3.4c-.02 1.15.18 2.3.6 3.37.36.9.99 1.66 1.8 2.2.88.55 1.91.84 2.96.81.81.03 1.61-.14 2.34-.49a4.04 4.04 0 0 0 1.64-1.5c.47-.78.76-1.65.86-2.55h-3.12v-2.3h6.27v1.03a9.7 9.7 0 0 1-.98 4.45 7.37 7.37 0 0 1-2.84 3.05 8.43 8.43 0 0 1-4.39 1.1Z" fill="url(#e)"/><path d="M121.56 32.36v-17.7h2.96v17.7h-2.96Z" fill="url(#f)"/><path d="M165.34 33.06v-17.7h2.97v17.7h-2.97Z" fill="url(#g)"/><path d="M136.23 32.73c-1.2.02-2.38-.2-3.49-.67a6.21 6.21 0 0 1-3.86-4.93l3.07-.47c.23 1 .81 1.87 1.64 2.46.83.56 1.82.85 2.82.81.6 0 1.2-.1 1.78-.29.51-.16.98-.44 1.36-.82.35-.37.54-.87.52-1.38a1.75 1.75 0 0 0-.48-1.25c-.18-.18-.39-.33-.61-.45a5.06 5.06 0 0 0-.87-.35l-4.57-1.36a10.7 10.7 0 0 1-1.27-.46 5.1 5.1 0 0 1-1.3-.82 3.98 3.98 0 0 1-1.38-3.26c-.02-1.01.29-2 .87-2.83a5.3 5.3 0 0 1 2.34-1.74 8.68 8.68 0 0 1 3.27-.56c1.13-.02 2.24.2 3.28.62.93.38 1.75.99 2.39 1.76a6.8 6.8 0 0 1 1.35 2.8l-3.18.54a3.55 3.55 0 0 0-2.17-2.6 4.61 4.61 0 0 0-3.35-.1c-.47.16-.9.44-1.22.81-.3.33-.47.76-.46 1.2a1.45 1.45 0 0 0 .4 1.06c.27.29.6.51.97.66.38.16.78.29 1.18.4l3.18.89c.43.11.91.27 1.45.46.56.2 1.09.48 1.57.82.51.37.93.85 1.24 1.4.34.67.5 1.42.48 2.18a4.85 4.85 0 0 1-2.11 4.14c-.68.47-1.43.82-2.22 1.03-.86.22-1.74.32-2.62.3Z" fill="url(#h)"/><path d="M151.57 32.36V17.48h-5.73v-2.82h14.42v2.82h-5.74v14.88h-2.95Z" fill="url(#i)"/><path d="M185.2 32.73a8.49 8.49 0 0 1-4.55-1.17 7.59 7.59 0 0 1-2.9-3.23 10.8 10.8 0 0 1-1.02-4.82 10.8 10.8 0 0 1 1.01-4.82 7.59 7.59 0 0 1 2.91-3.24 8.49 8.49 0 0 1 4.55-1.16 8.2 8.2 0 0 1 5.1 1.55 8.04 8.04 0 0 1 2.86 4.1l-2.99.82a5.22 5.22 0 0 0-1.75-2.72 5.03 5.03 0 0 0-3.22-.97 5.23 5.23 0 0 0-2.97.82 4.83 4.83 0 0 0-1.78 2.24 8.86 8.86 0 0 0-.6 3.39c-.03 1.15.17 2.3.58 3.38.36.91.98 1.7 1.8 2.25.88.56 1.92.85 2.97.82 1.16.04 2.3-.32 3.22-1.02a5.27 5.27 0 0 0 1.75-2.7l3 .82a8.04 8.04 0 0 1-2.87 4.1 8.2 8.2 0 0 1-5.1 1.56Z" fill="url(#j)"/><path d="M206.82 32.73c-1.2.02-2.4-.21-3.5-.67a6.29 6.29 0 0 1-3.83-4.93l3.08-.47c.22 1 .8 1.87 1.63 2.46.84.56 1.83.84 2.83.81.6 0 1.2-.1 1.78-.29.51-.16.98-.44 1.36-.82.35-.38.53-.87.52-1.38a1.63 1.63 0 0 0-.5-1.25 2.46 2.46 0 0 0-.6-.45 4.7 4.7 0 0 0-.86-.34l-4.6-1.37a11.3 11.3 0 0 1-1.28-.46c-.47-.2-.9-.49-1.28-.82a4 4 0 0 1-.96-1.3 4.5 4.5 0 0 1-.39-1.95c-.04-1.01.25-2.01.83-2.84a5.2 5.2 0 0 1 2.33-1.74c1.05-.4 2.16-.59 3.28-.56 1.13-.02 2.24.2 3.28.62.93.38 1.75.99 2.38 1.76a6.8 6.8 0 0 1 1.36 2.8l-3.18.55a3.58 3.58 0 0 0-2.17-2.6 4.65 4.65 0 0 0-3.36-.12 2.9 2.9 0 0 0-1.2.82c-.31.33-.48.76-.47 1.2a1.45 1.45 0 0 0 .4 1.06c.27.29.6.51.97.66.39.16.79.3 1.19.4l3.17.89c.44.11.92.27 1.46.46.55.2 1.08.48 1.56.82a4.09 4.09 0 0 1 1.72 3.58 4.92 4.92 0 0 1-2.1 4.14c-.68.47-1.43.82-2.23 1.03-.86.22-1.74.32-2.62.3Z" fill="url(#k)"/></g><defs><linearGradient id="b" x1="46.87" y1=".44" x2="46.87" y2="32.11" gradientUnits="userSpaceOnUse"><stop stop-color="#1363B0"/><stop offset="1" stop-color="#2D2688"/></linearGradient><linearGradient id="c" x1="73.48" y1="14.66" x2="73.48" y2="32.36" gradientUnits="userSpaceOnUse"><stop stop-color="#209ED4"/><stop offset="1" stop-color="#283290"/></linearGradient><linearGradient id="d" x1="89.47" y1="14.29" x2="89.47" y2="32.73" gradientUnits="userSpaceOnUse"><stop stop-color="#209ED4"/><stop offset="1" stop-color="#283290"/></linearGradient><linearGradient id="e" x1="109.09" y1="14.28" x2="109.09" y2="32.73" gradientUnits="userSpaceOnUse"><stop stop-color="#209ED4"/><stop offset="1" stop-color="#283290"/></linearGradient><linearGradient id="f" x1="123.04" y1="14.66" x2="123.04" y2="32.36" gradientUnits="userSpaceOnUse"><stop stop-color="#209ED4"/><stop offset="1" stop-color="#283290"/></linearGradient><linearGradient id="g" x1="166.82" y1="15.36" x2="166.82" y2="33.06" gradientUnits="userSpaceOnUse"><stop stop-color="#209ED4"/><stop offset="1" stop-color="#283290"/></linearGradient><linearGradient id="h" x1="136.03" y1="14.36" x2="136.03" y2="32.73" gradientUnits="userSpaceOnUse"><stop stop-color="#209ED4"/><stop offset="1" stop-color="#283290"/></linearGradient><linearGradient id="i" x1="153.05" y1="14.66" x2="153.05" y2="32.36" gradientUnits="userSpaceOnUse"><stop stop-color="#209ED4"/><stop offset="1" stop-color="#283290"/></linearGradient><linearGradient id="j" x1="184.94" y1="14.29" x2="184.94" y2="32.73" gradientUnits="userSpaceOnUse"><stop stop-color="#209ED4"/><stop offset="1" stop-color="#283290"/></linearGradient><linearGradient id="k" x1="206.63" y1="14.36" x2="206.63" y2="32.73" gradientUnits="userSpaceOnUse"><stop stop-color="#209ED4"/><stop offset="1" stop-color="#283290"/></linearGradient><clipPath id="a"><path fill="#fff" transform="translate(.69 .27)" d="M0 0h214.74v32.46H0z"/></clipPath></defs></svg>